<svg xmlns="http://www.w3.org/2000/svg" width="1200" height="44" viewBox="0 0 1200 44"><defs><linearGradient id="line" gradientUnits="userSpaceOnUse" x1="0" y1="22" x2="1200" y2="22"><stop stop-color="#9B7840" stop-opacity="0"/><stop offset=".5" stop-color="#9B7840"/><stop offset="1" stop-color="#9B7840" stop-opacity="0"/></linearGradient></defs><path d="M0 22H572 M628 22H1200" stroke="url(#line)"/><circle cx="600" cy="22" r="14" fill="none" stroke="#9B7840" opacity=".65"/><path d="M600,2 Q601,21 620,22 Q601,23 600,42 Q599,23 580,22 Q599,21 600,2Z" fill="#9B7840"/><path d="M568,18 Q569,21 572,22 Q569,23 568,26 Q567,23 564,22 Q567,21 568,18Z" fill="#9B7840"/><path d="M632,18 Q633,21 636,22 Q633,23 632,26 Q631,23 628,22 Q631,21 632,18Z" fill="#9B7840"/></svg>