<svg xmlns="http://www.w3.org/2000/svg" width="1200" height="192" viewBox="0 0 1200 192" role="img" aria-label="Thanks for stopping by! See you on the next page."><title>Thanks for stopping by! See you on the next page.</title><defs><pattern id="grid" width="28" height="28" patternUnits="userSpaceOnUse"><path d="M28 0H0V28" fill="none" stroke="#E3DFD4" stroke-width=".7"/></pattern></defs><rect x="2" y="16" width="1196" height="164" rx="22" fill="#FFF9EC" stroke="#E3DFD4" stroke-width="2"/>
<path d="M30 144H1170" stroke="#E3DFD4" stroke-dasharray="5 8" stroke-width="2"/>
<rect x="86" y="6" width="120" height="30" rx="3" fill="#6797C9" opacity=".5" transform="rotate(-6 146 21)"/>
<rect x="994" y="6" width="120" height="30" rx="3" fill="#9173BD" opacity=".5" transform="rotate(5 1054 21)"/>
<g font-family="Arial,sans-serif" text-anchor="middle" fill="#353347"><text x="600" y="89" font-size="30" font-weight="700">thanks for stopping by!</text><text x="600" y="122" font-size="17" fill="#6797C9">see you on the next page.</text></g>
<path d="M126 83q-25-23-38 0q-4 15 37 38q40-28 31-42q-10-17-30 4" fill="#9173BD" opacity=".65"/>
<path d="M1050 70l8 19 21 2-16 14 5 21-18-11-19 11 5-21-16-14 21-2z" fill="#6797C9" opacity=".7"/></svg>